<?xml version="1.0" encoding="UTF-8"?>
<svg version="1.1" xmlns="http://www.w3.org/2000/svg" width="700" height="200">
<path d="M0 0 C231 0 462 0 700 0 C700 66 700 132 700 200 C469 200 238 200 0 200 C0 134 0 68 0 0 Z " fill="#0D1218" transform="translate(0,0)"/>
<path d="M0 0 C1.98 0 3.96 0 6 0 C6 0.33 6 0.66 6 1 C4.35 1 2.7 1 1 1 C1 3.97 1 6.94 1 10 C2.65 10 4.3 10 6 10 C6 10.33 6 10.66 6 11 C4.35 11 2.7 11 1 11 C1 13.97 1 16.94 1 20 C2.65 20 4.3 20 6 20 C6 20.33 6 20.66 6 21 C4.35 21 2.7 21 1 21 C1 23.97 1 26.94 1 30 C2.65 30 4.3 30 6 30 C6 30.33 6 30.66 6 31 C4.35 31 2.7 31 1 31 C1 33.97 1 36.94 1 40 C2.65 40 4.3 40 6 40 C6 40.33 6 40.66 6 41 C4.35 41 2.7 41 1 41 C1 43.97 1 46.94 1 50 C2.65 50 4.3 50 6 50 C6 50.33 6 50.66 6 51 C4.35 51 2.7 51 1 51 C1 53.97 1 56.94 1 60 C2.65 60 4.3 60 6 60 C6 60.33 6 60.66 6 61 C4.35 61 2.7 61 1 61 C1 63.97 1 66.94 1 70 C2.65 70 4.3 70 6 70 C6 70.33 6 70.66 6 71 C4.35 71 2.7 71 1 71 C1 73.97 1 76.94 1 80 C2.65 80 4.3 80 6 80 C6 80.33 6 80.66 6 81 C4.35 81 2.7 81 1 81 C1 83.97 1 86.94 1 90 C2.65 90 4.3 90 6 90 C6 90.33 6 90.66 6 91 C4.35 91 2.7 91 1 91 C1 93.97 1 96.94 1 100 C2.65 100 4.3 100 6 100 C6 100.33 6 100.66 6 101 C4.35 101 2.7 101 1 101 C1 103.97 1 106.94 1 110 C2.65 110 4.3 110 6 110 C6 110.33 6 110.66 6 111 C4.35 111 2.7 111 1 111 C1 112.65 1 114.3 1 116 C0.67 116 0.34 116 0 116 C0 114.35 0 112.7 0 111 C-20.46 111 -40.92 111 -62 111 C-62 112.65 -62 114.3 -62 116 C-62.33 116 -62.66 116 -63 116 C-63 114.35 -63 112.7 -63 111 C-83.79 111 -104.58 111 -126 111 C-126 112.65 -126 114.3 -126 116 C-126.33 116 -126.66 116 -127 116 C-127 114.35 -127 112.7 -127 111 C-147.46 111 -167.92 111 -189 111 C-189 112.65 -189 114.3 -189 116 C-189.33 116 -189.66 116 -190 116 C-190 114.35 -190 112.7 -190 111 C-210.46 111 -230.92 111 -252 111 C-252 112.65 -252 114.3 -252 116 C-252.33 116 -252.66 116 -253 116 C-253 114.35 -253 112.7 -253 111 C-273.13 111 -293.26 111 -314 111 C-314 112.65 -314 114.3 -314 116 C-314.66 116 -315.32 116 -316 116 C-316 114.35 -316 112.7 -316 111 C-336.79 111 -357.58 111 -379 111 C-379 112.65 -379 114.3 -379 116 C-379.33 116 -379.66 116 -380 116 C-380 113.69 -380 111.38 -380 109 C-378.76131165 108.98160568 -377.52262329 108.96321136 -376.24639893 108.94425964 C-364.53581895 108.76852338 -352.82556005 108.5779645 -341.11545181 108.37313366 C-335.09609958 108.26831434 -329.07675549 108.16860082 -323.05712891 108.08081055 C-317.24080232 107.99579305 -311.42485256 107.89703096 -305.60890961 107.78899574 C-303.39720325 107.75027797 -301.18540643 107.71639646 -298.97354889 107.68758202 C-282.73447693 107.61114937 -282.73447693 107.61114937 -267 104 C-266.33688812 103.76847229 -265.67377625 103.53694458 -264.99057007 103.29840088 C-258.47407649 100.75481162 -253.71628658 97.62699356 -250.4375 91.375 C-245.80332819 80.76958387 -243.24878405 69.29065147 -240.6222229 58.05587769 C-238.2149989 47.80009581 -235.7642948 37.55217245 -232.8125 27.4375 C-232.59932129 26.67880615 -232.38614258 25.9201123 -232.16650391 25.13842773 C-230.47496686 19.53720602 -228.14817156 12.7844737 -222.83911133 9.77514648 C-221.92875122 9.39144897 -221.92875122 9.39144897 -221 9 C-216.49080907 12.09809797 -214.17576164 15.64976876 -211.75 20.4375 C-211.1780188 21.5356604 -211.1780188 21.5356604 -210.59448242 22.65600586 C-207.10191449 29.50023739 -204.10121186 36.5500678 -201.27050781 43.69116211 C-198.90828725 49.48441306 -195.99270169 54.18272774 -192 59 C-188.93753543 58.69482038 -187.43827805 58.50322522 -185.37719727 56.13671875 C-181.71440221 49.60424587 -178.7050349 42.95635565 -175.9375 36 C-166.87602831 13.43936906 -166.87602831 13.43936906 -162 9 C-153.33340877 7.30242027 -144.27537372 9.34087714 -136 12 C-135.08992187 12.2784375 -134.17984375 12.556875 -133.2421875 12.84375 C-125.68358018 15.4610588 -122.15885349 18.9407094 -118.43359375 25.9453125 C-114.10248668 34.92909376 -110.37170939 44.18996992 -106.63964844 53.43530273 C-104.74177789 58.08309426 -102.77561687 62.68333427 -100.5078125 67.1640625 C-100.14574707 67.88287598 -99.78368164 68.60168945 -99.41064453 69.34228516 C-98.05342346 71.1775953 -98.05342346 71.1775953 -95.65576172 72.05224609 C-92.79930494 72.26122481 -92.79930494 72.26122481 -90.39624023 69.97192383 C-87.91261056 66.89161573 -86.30848033 64.04114607 -84.66015625 60.44921875 C-84.22599648 59.52276299 -84.22599648 59.52276299 -83.7830658 58.57759094 C-82.86584127 56.61884864 -81.96270621 54.6541155 -81.0625 52.6875 C-72.90418767 34.90418767 -72.90418767 34.90418767 -66 28 C-62.05858928 27.358375 -59.76798682 27.88588487 -56.5859375 30.140625 C-53.10981967 32.73111355 -50.77140212 35.59570057 -48.3125 39.1875 C-47.89806641 39.78409424 -47.48363281 40.38068848 -47.05664062 40.99536133 C-44.65998767 44.46917664 -42.34512484 47.99432156 -40.04296875 51.53125 C-34.91127364 59.3974244 -29.87279237 66.69588676 -23.36328125 73.49609375 C-20.9344254 76.06947656 -18.71533676 78.74149836 -16.5 81.5 C-12.509927 86.4519656 -8.29641762 91.13024215 -3.96875 95.78515625 C-2 98 -2 98 -1 100 C-0.67 67 -0.34 34 0 0 Z " fill="#3FC362" transform="translate(645,50)"/>
<path d="M0 0 C231 0 462 0 700 0 C700 66 700 132 700 200 C469 200 238 200 0 200 C0 134 0 68 0 0 Z M1 3 C0.80250166 5.56623011 0.73071232 8.02463083 0.74603271 10.59204102 C0.74291273 11.38454789 0.73979275 12.17705477 0.73657823 12.993577 C0.72856585 15.66376119 0.73493439 18.33372015 0.74121094 21.00390625 C0.73850251 22.91226332 0.73494242 24.82061935 0.73059082 26.72897339 C0.72144689 31.92306438 0.72501931 37.11707623 0.73134899 42.31116867 C0.73639864 47.73682627 0.73172043 53.16247691 0.72857666 58.58813477 C0.72493399 67.70102154 0.729744 76.81387595 0.73925781 85.92675781 C0.75014293 96.47523754 0.74661757 107.02363996 0.735605 117.57211781 C0.7265407 126.61500875 0.72524264 135.65787636 0.73048234 144.70077038 C0.73360676 150.10774694 0.73399847 155.51468712 0.72740936 160.92166138 C0.72164896 166.00397501 0.72560876 171.08618859 0.73719788 176.16849136 C0.73985148 178.03821776 0.73906752 179.90795252 0.73467255 181.77767563 C0.72924313 184.32121865 0.73601925 186.8644369 0.74603271 189.40795898 C0.74157127 190.15561303 0.73710983 190.90326708 0.73251319 191.67357731 C0.63624654 195.79000429 0.63624654 195.79000429 3 199 C5.15974506 199.30258673 5.15974506 199.30258673 7.69604397 199.25069833 C9.19420448 199.25820888 9.19420448 199.25820888 10.72263086 199.26587117 C11.83022087 199.26118883 12.93781089 199.2565065 14.07896423 199.25168228 C15.25240407 199.25458916 16.4258439 199.25749604 17.63484251 199.26049101 C20.91662205 199.26656773 24.19817524 199.26359249 27.47993942 199.25693511 C31.04087042 199.25188829 34.60178274 199.25837092 38.16271114 199.26342177 C44.41182851 199.27066732 50.66091137 199.27041248 56.91003036 199.26532745 C66.2024283 199.25778648 75.49479693 199.26161743 84.78719464 199.26774407 C101.37994612 199.27829604 117.97268224 199.27735463 134.5654352 199.27158624 C149.08568851 199.26656289 163.60593618 199.2652381 178.12619019 199.26763153 C179.08788712 199.2677843 180.04958406 199.26793707 181.04042333 199.26809447 C184.94387965 199.26871711 188.84733597 199.2693539 192.75079229 199.270014 C229.39753104 199.2761374 266.04425999 199.27057653 302.69099723 199.2598202 C335.27740184 199.2503284 367.86379083 199.25117763 400.45019531 199.26074219 C437.02823025 199.27144236 473.60625651 199.2757032 510.18429279 199.26951766 C514.08079847 199.26887619 517.97730414 199.26825051 521.87380981 199.26763153 C523.31302769 199.2673943 523.31302769 199.2673943 524.78132068 199.26715227 C539.29544948 199.26487357 553.80957202 199.26754487 568.32369995 199.27259064 C584.82042624 199.27829691 601.3171347 199.27690572 617.81385875 199.26602915 C627.05608709 199.26013726 636.29827688 199.25980093 645.54050426 199.2673215 C651.70359898 199.2717851 657.8666626 199.26905375 664.02975269 199.26031196 C667.54817576 199.25552578 671.06652188 199.25398646 674.5849427 199.26112393 C678.36368215 199.26871181 682.14229807 199.26104309 685.92103577 199.25168228 C687.02862578 199.25636461 688.13621579 199.26104695 689.27736914 199.26587117 C690.77552965 199.25836061 690.77552965 199.25836061 692.30395603 199.25069833 C693.60182351 199.25049505 693.60182351 199.25049505 694.92591053 199.25028767 C697.22180215 199.18973077 697.22180215 199.18973077 699 197 C699.19749834 194.43376989 699.26928768 191.97536917 699.25396729 189.40795898 C699.25864726 188.21919867 699.25864726 188.21919867 699.26342177 187.006423 C699.27143415 184.33623881 699.26506561 181.66627985 699.25878906 178.99609375 C699.26149749 177.08773668 699.26505758 175.17938065 699.26940918 173.27102661 C699.27855311 168.07693562 699.27498069 162.88292377 699.26865101 157.68883133 C699.26360136 152.26317373 699.26827957 146.83752309 699.27142334 141.41186523 C699.27506601 132.29897846 699.270256 123.18612405 699.26074219 114.07324219 C699.24985707 103.52476246 699.25338243 92.97636004 699.264395 82.42788219 C699.2734593 73.38499125 699.27475736 64.34212364 699.26951766 55.29922962 C699.26639324 49.89225306 699.26600153 44.48531288 699.27259064 39.07833862 C699.27835104 33.99602499 699.27439124 28.91381141 699.26280212 23.83150864 C699.26014852 21.96178224 699.26093248 20.09204748 699.26532745 18.22232437 C699.27075687 15.67878135 699.26398075 13.1355631 699.25396729 10.59204102 C699.26065945 9.47055995 699.26065945 9.47055995 699.26748681 8.32642269 C699.36375346 4.20999571 699.36375346 4.20999571 697 1 C694.84025494 0.69741327 694.84025494 0.69741327 692.30395603 0.74930167 C691.30518236 0.74429464 690.30640868 0.7392876 689.27736914 0.73412883 C688.16977913 0.73881117 687.06218911 0.7434935 685.92103577 0.74831772 C684.74759593 0.74541084 683.5741561 0.74250396 682.36515749 0.73950899 C679.08337795 0.73343227 675.80182476 0.73640751 672.52006058 0.74306489 C668.95912958 0.74811171 665.39821726 0.74162908 661.83728886 0.73657823 C655.58817149 0.72933268 649.33908863 0.72958752 643.08996964 0.73467255 C633.7975717 0.74221352 624.50520307 0.73838257 615.21280536 0.73225593 C598.62005388 0.72170396 582.02731776 0.72264537 565.4345648 0.72841376 C550.91431149 0.73343711 536.39406382 0.7347619 521.87380981 0.73236847 C520.91211288 0.7322157 519.95041594 0.73206293 518.95957667 0.73190553 C515.05612035 0.73128289 511.15266403 0.7306461 507.24920771 0.729986 C470.60246896 0.7238626 433.95574001 0.72942347 397.30900277 0.7401798 C364.72259816 0.7496716 332.13620917 0.74882237 299.54980469 0.73925781 C262.97176975 0.72855764 226.39374349 0.7242968 189.81570721 0.73048234 C185.91920153 0.73112381 182.02269586 0.73174949 178.12619019 0.73236847 C176.68697231 0.7326057 176.68697231 0.7326057 175.21867932 0.73284773 C160.70455052 0.73512643 146.19042798 0.73245513 131.67630005 0.72740936 C115.17957376 0.72170309 98.6828653 0.72309428 82.18614125 0.73397085 C72.94391291 0.73986274 63.70172312 0.74019907 54.45949574 0.7326785 C48.29640102 0.7282149 42.1333374 0.73094625 35.97024731 0.73968804 C32.45182424 0.74447422 28.93347812 0.74601354 25.4150573 0.73887607 C21.63631785 0.73128819 17.85770193 0.73895691 14.07896423 0.74831772 C12.97137422 0.74363539 11.86378421 0.73895305 10.72263086 0.73412883 C9.22447035 0.74163939 9.22447035 0.74163939 7.69604397 0.74930167 C6.83079898 0.74943719 5.965554 0.74957271 5.07408947 0.74971233 C2.77819785 0.81026923 2.77819785 0.81026923 1 3 Z " fill="#9A9DA1" transform="translate(0,0)"/>
<path d="M0 0 C1.98 0 3.96 0 6 0 C6 0.33 6 0.66 6 1 C4.35 1 2.7 1 1 1 C1 3.97 1 6.94 1 10 C2.65 10 4.3 10 6 10 C6 10.33 6 10.66 6 11 C4.35 11 2.7 11 1 11 C1 13.97 1 16.94 1 20 C2.65 20 4.3 20 6 20 C6 20.33 6 20.66 6 21 C4.35 21 2.7 21 1 21 C1 23.97 1 26.94 1 30 C2.65 30 4.3 30 6 30 C6 30.33 6 30.66 6 31 C4.35 31 2.7 31 1 31 C1 33.97 1 36.94 1 40 C2.65 40 4.3 40 6 40 C6 40.33 6 40.66 6 41 C4.35 41 2.7 41 1 41 C1 43.97 1 46.94 1 50 C2.65 50 4.3 50 6 50 C6 50.33 6 50.66 6 51 C4.35 51 2.7 51 1 51 C1 53.97 1 56.94 1 60 C2.65 60 4.3 60 6 60 C6 60.33 6 60.66 6 61 C4.35 61 2.7 61 1 61 C1 63.97 1 66.94 1 70 C2.65 70 4.3 70 6 70 C6 70.33 6 70.66 6 71 C4.35 71 2.7 71 1 71 C1 73.97 1 76.94 1 80 C2.65 80 4.3 80 6 80 C6 80.33 6 80.66 6 81 C4.35 81 2.7 81 1 81 C1 83.97 1 86.94 1 90 C2.65 90 4.3 90 6 90 C6 90.33 6 90.66 6 91 C4.35 91 2.7 91 1 91 C1 93.97 1 96.94 1 100 C2.65 100 4.3 100 6 100 C6 100.33 6 100.66 6 101 C4.35 101 2.7 101 1 101 C1 103.97 1 106.94 1 110 C2.65 110 4.3 110 6 110 C6 110.33 6 110.66 6 111 C4.35 111 2.7 111 1 111 C1 112.65 1 114.3 1 116 C0.67 116 0.34 116 0 116 C0 114.35 0 112.7 0 111 C-20.46 111 -40.92 111 -62 111 C-62 112.65 -62 114.3 -62 116 C-62.33 116 -62.66 116 -63 116 C-63 114.35 -63 112.7 -63 111 C-83.79 111 -104.58 111 -126 111 C-126 112.65 -126 114.3 -126 116 C-126.33 116 -126.66 116 -127 116 C-127 114.35 -127 112.7 -127 111 C-147.46 111 -167.92 111 -189 111 C-189 112.65 -189 114.3 -189 116 C-189.33 116 -189.66 116 -190 116 C-190 114.35 -190 112.7 -190 111 C-210.46 111 -230.92 111 -252 111 C-252 112.65 -252 114.3 -252 116 C-252.33 116 -252.66 116 -253 116 C-253 114.35 -253 112.7 -253 111 C-273.13 111 -293.26 111 -314 111 C-314 112.65 -314 114.3 -314 116 C-314.66 116 -315.32 116 -316 116 C-316 114.35 -316 112.7 -316 111 C-336.79 111 -357.58 111 -379 111 C-379 112.65 -379 114.3 -379 116 C-379.33 116 -379.66 116 -380 116 C-380 114.02 -380 112.04 -380 110 C-254.6 110 -129.2 110 0 110 C0 73.7 0 37.4 0 0 Z " fill="#6B868D" transform="translate(645,50)"/>
<path d="M0 0 C4.0743356 0.84881992 5.54405875 2.30225596 8 5.625 C8.625 8.625 8.625 8.625 8 11.625 C5.54405875 14.94774404 4.0743356 16.40118008 0 17.25 C-4.0743356 16.40118008 -5.54405875 14.94774404 -8 11.625 C-8.625 8.625 -8.625 8.625 -8 5.625 C-5.54405875 2.30225596 -4.0743356 0.84881992 0 0 Z " fill="#3C4149" transform="translate(38,125.375)"/>
<path d="M0 0 C1.27875 0.00257813 2.5575 0.00515625 3.875 0.0078125 C5.15375 0.00523437 6.4325 0.00265625 7.75 0 C10.875 0.1328125 10.875 0.1328125 11.875 1.1328125 C11.94726502 2.98568752 11.9588122 4.84115128 11.9375 6.6953125 C11.92847656 7.70722656 11.91945313 8.71914062 11.91015625 9.76171875 C11.89855469 10.54417969 11.88695313 11.32664063 11.875 12.1328125 C9.39576199 12.15966345 6.9168116 12.17957797 4.4375 12.1953125 C3.73044922 12.20369141 3.02339844 12.21207031 2.29492188 12.22070312 C0.48806441 12.22934838 -1.31887603 12.18501261 -3.125 12.1328125 C-4.125 11.1328125 -4.125 11.1328125 -4.2578125 8.8828125 C-4.25523438 7.9753125 -4.25265625 7.0678125 -4.25 6.1328125 C-4.25257812 5.2253125 -4.25515625 4.3178125 -4.2578125 3.3828125 C-4.04965623 -0.1435996 -3.61908446 0.15381109 0 0 Z " fill="#6F7780" transform="translate(34.125,155.8671875)"/>
<path d="M0 0 C2.83203125 0.03255208 5.6640625 0.06510417 8.49609375 0.09765625 C8.49609375 4.71765625 8.49609375 9.33765625 8.49609375 14.09765625 C7.17609375 14.09765625 5.85609375 14.09765625 4.49609375 14.09765625 C4.49609375 13.43765625 4.49609375 12.77765625 4.49609375 12.09765625 C1.52609375 11.60265625 1.52609375 11.60265625 -1.50390625 11.09765625 C-1.50390625 11.75765625 -1.50390625 12.41765625 -1.50390625 13.09765625 C-2.16390625 13.09765625 -2.82390625 13.09765625 -3.50390625 13.09765625 C-3.53077178 11.11856227 -3.55024 9.13936654 -3.56640625 7.16015625 C-3.57800781 6.05800781 -3.58960937 4.95585938 -3.6015625 3.8203125 C-3.46938887 0.13531158 -3.46938887 0.13531158 0 0 Z " fill="#6F7780" transform="translate(35.50390625,97.90234375)"/>
<path d="M0 0 C3.0625 0.3125 3.0625 0.3125 4.9375 1.375 C6.71046631 4.42844197 6.42593372 6.85987962 6.0625 10.3125 C4.9375 12.75 4.9375 12.75 3.0625 14.3125 C0 14.75 0 14.75 -2.9375 14.3125 C-5.02690868 11.17838698 -5.21114412 10.33799528 -5.1875 6.75 C-5.19265625 5.96496094 -5.1978125 5.17992187 -5.203125 4.37109375 C-4.74814812 0.84502297 -3.38252397 0.35984298 0 0 Z " fill="#0C131D" transform="translate(134.9375,24.6875)"/>
<path d="M0 0 C3 0.25 3 0.25 5 2.25 C5.265625 4.5625 5.265625 4.5625 5.25 7.25 C5.25515625 8.136875 5.2603125 9.02375 5.265625 9.9375 C5 12.25 5 12.25 3 14.25 C0 14.5 0 14.5 -3 14.25 C-5 12.25 -5 12.25 -5.265625 9.9375 C-5.26046875 9.050625 -5.2553125 8.16375 -5.25 7.25 C-5.25515625 6.363125 -5.2603125 5.47625 -5.265625 4.5625 C-4.83803703 0.83996944 -3.62712046 0.30226004 0 0 Z " fill="#083362" transform="translate(160,24.75)"/>
<path d="M0 0 C1.21816406 0.03480469 1.21816406 0.03480469 2.4609375 0.0703125 C3.68683594 0.09738281 3.68683594 0.09738281 4.9375 0.125 C5.87722656 0.15980469 5.87722656 0.15980469 6.8359375 0.1953125 C8.4774424 3.4783223 7.35482374 6.62076283 6.8359375 10.1953125 C5.37800866 10.24930986 3.91951038 10.28810427 2.4609375 10.3203125 C1.64882812 10.34351563 0.83671875 10.36671875 0 10.390625 C-2.1640625 10.1953125 -2.1640625 10.1953125 -4.1640625 8.1953125 C-4.4140625 5.1953125 -4.4140625 5.1953125 -4.1640625 2.1953125 C-2.1640625 0.1953125 -2.1640625 0.1953125 0 0 Z M7.8359375 0.1953125 C8.8259375 0.1953125 9.8159375 0.1953125 10.8359375 0.1953125 C10.8359375 0.8553125 10.8359375 1.5153125 10.8359375 2.1953125 C11.4959375 2.1953125 12.1559375 2.1953125 12.8359375 2.1953125 C12.8359375 2.8553125 12.8359375 3.5153125 12.8359375 4.1953125 C12.1759375 4.1953125 11.5159375 4.1953125 10.8359375 4.1953125 C10.8359375 5.8453125 10.8359375 7.4953125 10.8359375 9.1953125 C11.4959375 9.5253125 12.1559375 9.8553125 12.8359375 10.1953125 C11.5159375 9.8653125 10.1959375 9.5353125 8.8359375 9.1953125 C8.5059375 6.2253125 8.1759375 3.2553125 7.8359375 0.1953125 Z " fill="#3A474F" transform="translate(102.1640625,129.8046875)"/>
<path d="M0 0 C4.0743356 0.84881992 5.54405875 2.30225596 8 5.625 C8.57579666 9.15175456 8.41496376 10.8741132 6.6875 14 C5 15.625 5 15.625 2 15.625 C2 14.305 2 12.985 2 11.625 C2.66 11.295 3.32 10.965 4 10.625 C4 8.645 4 6.665 4 4.625 C1.69 4.625 -0.62 4.625 -3 4.625 C-3.33 6.605 -3.66 8.585 -4 10.625 C-3.34 10.955 -2.68 11.285 -2 11.625 C-2.33 12.285 -2.66 12.945 -3 13.625 C-2.67 14.285 -2.34 14.945 -2 15.625 C-3.875 15.3125 -3.875 15.3125 -6 14.625 C-8.34549674 11.10675489 -8.57991403 9.76724306 -8 5.625 C-5.54405875 2.30225596 -4.0743356 0.84881992 0 0 Z " fill="#818A93" transform="translate(38,69.375)"/>
<path d="M0 0 C0.99 0 1.98 0 3 0 C3 4.95 3 9.9 3 15 C-3.93359375 15.09765625 -3.93359375 15.09765625 -6 15 C-7.89488952 13.10511048 -7.18019112 10.42860854 -7.23046875 7.91015625 C-7 6 -7 6 -5 4 C-3.68 4 -2.36 4 -1 4 C-0.67 2.68 -0.34 1.36 0 0 Z " fill="#035DBE" transform="translate(292,24)"/>
<path d="M0 0 C2 2 2 2 2.25 4.875 C2.01152253 7.85596832 1.54507335 9.4892558 0 12 C-5.4 12.36 -5.4 12.36 -7.875 10.875 C-9.52854531 8.11909116 -9.39365568 6.14924548 -9 3 C-6.78679539 -0.68867435 -4.02162985 -0.42783296 0 0 Z " fill="#3B4851" transform="translate(100,158)"/>
<path d="M0 0 C0.66 0 1.32 0 2 0 C2 1.65 2 3.3 2 5 C2.94875 4.79375 3.8975 4.5875 4.875 4.375 C6.421875 4.189375 6.421875 4.189375 8 4 C10 6 10 6 10.25 9.5 C10 13 10 13 8 15 C5.31160615 15.26991906 2.70858064 15.08737357 0 15 C0 10.05 0 5.1 0 0 Z " fill="#0456AE" transform="translate(107,24)"/>
<path d="M0 0 C0.66 0 1.32 0 2 0 C2 4.95 2 9.9 2 15 C0.72125 15.061875 -0.5575 15.12375 -1.875 15.1875 C-2.59429687 15.22230469 -3.31359375 15.25710937 -4.0546875 15.29296875 C-4.69664063 15.19628906 -5.33859375 15.09960938 -6 15 C-8.15502531 11.76746204 -8.46856135 10.74849077 -8 7 C-6.75 5.1875 -6.75 5.1875 -5 4 C-3.68 4 -2.36 4 -1 4 C-0.67 2.68 -0.34 1.36 0 0 Z " fill="#0457B1" transform="translate(55,24)"/>
<path d="M0 0 C2 2 2 2 2.25 5.5 C2 9 2 9 0 11 C-3 11.3125 -3 11.3125 -6 11 C-8.15502531 7.76746204 -8.46856135 6.74849077 -8 3 C-5.84871852 -0.2835349 -3.77529378 -0.48401202 0 0 Z " fill="#0456AE" transform="translate(102,28)"/>
<path d="M0 0 C2.64 0 5.28 0 8 0 C7.83628906 0.50015625 7.67257813 1.0003125 7.50390625 1.515625 C6.8121089 4.9263468 6.89495335 8.28735757 6.9375 11.75 C6.94201172 12.44738281 6.94652344 13.14476562 6.95117188 13.86328125 C6.9628998 15.57555803 6.98083347 17.28779033 7 19 C5.68 19.33 4.36 19.66 3 20 C3 19.34 3 18.68 3 18 C3.66 18 4.32 18 5 18 C4.67 14.04 4.34 10.08 4 6 C3.67 6 3.34 6 3 6 C2.67 9.96 2.34 13.92 2 18 C0.68 18.33 -0.64 18.66 -2 19 C-1.34 18.67 -0.68 18.34 0 18 C0 13.38 0 8.76 0 4 C0.66 4 1.32 4 2 4 C2 3.34 2 2.68 2 2 C1.34 2 0.68 2 0 2 C0 1.34 0 0.68 0 0 Z " fill="#073E7A" transform="translate(84,24)"/>
<path d="M0 0 C0.99 0 1.98 0 3 0 C3 0.66 3 1.32 3 2 C3.99 1.34 4.98 0.68 6 0 C8.1875 0.375 8.1875 0.375 10 1 C10.625 3.375 10.625 3.375 11 6 C9 8 9 8 6.65234375 8.23046875 C5.75644531 8.21628906 4.86054688 8.20210937 3.9375 8.1875 C3.03902344 8.18105469 2.14054688 8.17460937 1.21484375 8.16796875 C-1 8 -1 8 -2 7 C-2.1875 4.5625 -2.1875 4.5625 -2 2 C-1.34 1.34 -0.68 0.68 0 0 Z " fill="#43515B" transform="translate(180,160)"/>
<path d="M0 0 C0.99 0 1.98 0 3 0 C3.33 1.32 3.66 2.64 4 4 C4.804375 4.144375 5.60875 4.28875 6.4375 4.4375 C9 5 9 5 10 6 C10.07179964 7.51928038 10.08392007 9.04167482 10.0625 10.5625 C10.05347656 11.38878906 10.04445312 12.21507812 10.03515625 13.06640625 C10.02355469 13.70449219 10.01195312 14.34257813 10 15 C9.01 15 8.02 15 7 15 C7 12.03 7 9.06 7 6 C6.01 6.33 5.02 6.66 4 7 C3.67 9.64 3.34 12.28 3 15 C2.01 15 1.02 15 0 15 C0 10.05 0 5.1 0 0 Z " fill="#035DBC" transform="translate(232,24)"/>
<path d="M0 0 C1.134375 0.020625 2.26875 0.04125 3.4375 0.0625 C3.4375 1.0525 3.4375 2.0425 3.4375 3.0625 C0.4675 2.5675 0.4675 2.5675 -2.5625 2.0625 C-2.5625 3.0525 -2.5625 4.0425 -2.5625 5.0625 C-1.593125 5.206875 -0.62375 5.35125 0.375 5.5 C3.4375 6.0625 3.4375 6.0625 4.4375 7.0625 C4.5625 10.0625 4.5625 10.0625 4.4375 13.0625 C3.4375 14.0625 3.4375 14.0625 0 14.1875 C-3.5625 14.0625 -3.5625 14.0625 -5.5625 13.0625 C-5.2325 12.0725 -4.9025 11.0825 -4.5625 10.0625 C-1.5925 10.5575 -1.5925 10.5575 1.4375 11.0625 C1.4375 10.4025 1.4375 9.7425 1.4375 9.0625 C-0.8725 8.0725 -3.1825 7.0825 -5.5625 6.0625 C-4.48849278 0.07874549 -4.48849278 0.07874549 0 0 Z " fill="#0361C7" transform="translate(199.5625,24.9375)"/>
<path d="M0 0 C1.99954746 -0.04254356 4.00041636 -0.04080783 6 0 C7.66342837 1.66342837 7.36048097 3.7825709 7.5625 6.0625 C7.64628906 6.98160156 7.73007813 7.90070312 7.81640625 8.84765625 C7.87699219 9.55792969 7.93757812 10.26820312 8 11 C5.03 11 2.06 11 -1 11 C-1.33 9.35 -1.66 7.7 -2 6 C-1.195625 5.71125 -0.39125 5.4225 0.4375 5.125 C3.1326468 4.26737432 3.1326468 4.26737432 4 2 C2.35 2.33 0.7 2.66 -1 3 C-0.67 2.01 -0.34 1.02 0 0 Z " fill="#07407E" transform="translate(246,28)"/>
<path d="M0 0 C2.375 -0.125 2.375 -0.125 5 0 C8.15771423 3.15771423 7.62506773 6.62579022 8 11 C5.03 11 2.06 11 -1 11 C-1.33 9.35 -1.66 7.7 -2 6 C-1.195625 5.71125 -0.39125 5.4225 0.4375 5.125 C3.1326468 4.26737432 3.1326468 4.26737432 4 2 C2.35 2.33 0.7 2.66 -1 3 C-0.67 2.01 -0.34 1.02 0 0 Z " fill="#045AB8" transform="translate(275,28)"/>
<path d="M0 0 C1.99954746 -0.04254356 4.00041636 -0.04080783 6 0 C7 1 7 1 7.09765625 2.84765625 C7.04882812 5.92382812 7.04882812 5.92382812 7 9 C7.66 9 8.32 9 9 9 C9 9.66 9 10.32 9 11 C5.7 11 2.4 11 -1 11 C-1 9.35 -1 7.7 -1 6 C0.98 5.34 2.96 4.68 5 4 C5 3.34 5 2.68 5 2 C3.02 2.33 1.04 2.66 -1 3 C-0.67 2.01 -0.34 1.02 0 0 Z " fill="#035FC3" transform="translate(299,28)"/>
<path d="M0 0 C2.375 -0.125 2.375 -0.125 5 0 C8.15771423 3.15771423 7.62506773 6.62579022 8 11 C5.03 11 2.06 11 -1 11 C-1 9.35 -1 7.7 -1 6 C0.98 5.34 2.96 4.68 5 4 C5 3.34 5 2.68 5 2 C3.02 2.33 1.04 2.66 -1 3 C-0.67 2.01 -0.34 1.02 0 0 Z " fill="#0457B0" transform="translate(74,28)"/>
<path d="M0 0 C1.875 0.3125 1.875 0.3125 4 1 C4.66 1.99 5.32 2.98 6 4 C6.99 2.68 7.98 1.36 9 0 C9.99 0.33 10.98 0.66 12 1 C11.360625 2.03125 10.72125 3.0625 10.0625 4.125 C8.18288629 7.38609658 7.36873469 10.22046944 7 14 C6.01 14 5.02 14 4 14 C3.87882812 13.40832031 3.75765625 12.81664062 3.6328125 12.20703125 C2.73255357 7.96196415 1.79543379 3.97560339 0 0 Z " fill="#035EBF" transform="translate(260,25)"/>
<path d="M0 0 C1.65 0 3.3 0 5 0 C5 3.3 5 6.6 5 10 C3.35 10 1.7 10 0 10 C-2 8 -2 8 -2.25 5 C-2 2 -2 2 0 0 Z " fill="#38454E" transform="translate(202,74)"/>
<path d="M0 0 C3.0625 0.3125 3.0625 0.3125 4.9375 1.375 C6.71046631 4.42844197 6.42593372 6.85987962 6.0625 10.3125 C4.9375 12.75 4.9375 12.75 3.0625 14.3125 C0 14.75 0 14.75 -2.9375 14.3125 C-5.02690868 11.17838698 -5.21114412 10.33799528 -5.1875 6.75 C-5.19265625 5.96496094 -5.1978125 5.17992187 -5.203125 4.37109375 C-4.74814812 0.84502297 -3.38252397 0.35984298 0 0 Z M-1.9375 1.3125 C-3.1620178 2.31719623 -3.1620178 2.31719623 -3.0703125 4.34375 C-3.06773437 5.1584375 -3.06515625 5.973125 -3.0625 6.8125 C-3.06507813 7.6271875 -3.06765625 8.441875 -3.0703125 9.28125 C-3.1620178 11.30780377 -3.1620178 11.30780377 -1.9375 12.3125 C0.5625 12.47916667 0.5625 12.47916667 3.0625 12.3125 C4.95738952 10.41761048 4.24269112 7.74110854 4.29296875 5.22265625 C4.2327792 3.0712364 4.2327792 3.0712364 2.0625 1.3125 C0.7425 1.3125 -0.5775 1.3125 -1.9375 1.3125 Z " fill="#035EC1" transform="translate(134.9375,24.6875)"/>
<path d="M0 0 C2.5625 0.25 2.5625 0.25 5 1 C5.33 1.66 5.66 2.32 6 3 C4.68 3 3.36 3 2 3 C2 4.65 2 6.3 2 8 C2.99 8 3.98 8 5 8 C5.33 6.68 5.66 5.36 6 4 C6.66 4 7.32 4 8 4 C8 6.31 8 8.62 8 11 C1.9453125 11.1953125 1.9453125 11.1953125 0 11 C-2 9 -2 9 -2.25 5.5 C-2 2 -2 2 0 0 Z " fill="#0266D1" transform="translate(221,28)"/>
<path d="M0 0 C2.625 0.375 2.625 0.375 5 1 C5.1953125 7.0546875 5.1953125 7.0546875 5 9 C4.34 9.66 3.68 10.32 3 11 C1.68 11 0.36 11 -1 11 C-1 9.68 -1 8.36 -1 7 C-1.20625 6.13375 -1.4125 5.2675 -1.625 4.375 C-1.74875 3.59125 -1.8725 2.8075 -2 2 C-1.34 1.34 -0.68 0.68 0 0 Z " fill="#46555E" transform="translate(203,132)"/>
<path d="M0 0 C0.99 0 1.98 0 3 0 C3.66 1.65 4.32 3.3 5 5 C6.93798263 2.22739701 6.93798263 2.22739701 8 0 C8.99 0 9.98 0 11 0 C10.60446947 1.6510403 10.18286103 3.2958515 9.75 4.9375 C9.40195312 6.31228516 9.40195312 6.31228516 9.046875 7.71484375 C8 10 8 10 5.890625 10.81640625 C5.26671875 10.87699219 4.6428125 10.93757813 4 11 C3.32880451 9.5437455 2.66318193 8.08492133 2 6.625 C1.62875 5.81289063 1.2575 5.00078125 0.875 4.1640625 C0 2 0 2 0 0 Z " fill="#035FC2" transform="translate(308,28)"/>
<path d="M0 0 C0.66 0 1.32 0 2 0 C2 3.63 2 7.26 2 11 C0.35 11 -1.3 11 -3 11 C-3.66 10.34 -4.32 9.68 -5 9 C-4.625 6.375 -4.625 6.375 -4 4 C-2.68 3.67 -1.36 3.34 0 3 C0 2.01 0 1.02 0 0 Z " fill="#45555E" transform="translate(91,129)"/>
<path d="M0 0 C2.64 0 5.28 0 8 0 C8 2.31 8 4.62 8 7 C5.36 7 2.72 7 0 7 C0 4.69 0 2.38 0 0 Z " fill="#0A0E14" transform="translate(34,100)"/>
<path d="M0 0 C0.66 0 1.32 0 2 0 C2 0.99 2 1.98 2 3 C3.32 3.33 4.64 3.66 6 4 C6.625 6.375 6.625 6.375 7 9 C6.34 9.66 5.68 10.32 5 11 C3.35 11 1.7 11 0 11 C0 7.37 0 3.74 0 0 Z " fill="#46555E" transform="translate(236,73)"/>
<path d="M0 0 C1.45792884 -0.05399736 2.91642712 -0.09279177 4.375 -0.125 C5.18710938 -0.14820313 5.99921875 -0.17140625 6.8359375 -0.1953125 C9 0 9 0 11 2 C11 2.99 11 3.98 11 5 C9.68 5.33 8.36 5.66 7 6 C7.99 6.66 8.98 7.32 10 8 C8.35 7.67 6.7 7.34 5 7 C4.67 5.35 4.34 3.7 4 2 C3.01 2 2.02 2 1 2 C1 3.98 1 5.96 1 8 C0.67 8 0.34 8 0 8 C0 5.36 0 2.72 0 0 Z " fill="#4F606A" transform="translate(105,160)"/>
<path d="M0 0 C1.65 0 3.3 0 5 0 C7 2 7 2 7.1953125 3.9453125 C7.13020833 5.96354167 7.06510417 7.98177083 7 10 C6.01 9.34 5.02 8.68 4 8 C4 7.34 4 6.68 4 6 C3.34 6 2.68 6 2 6 C2 7.32 2 8.64 2 10 C1.34 10 0.68 10 0 10 C0 6.7 0 3.4 0 0 Z " fill="#4E6069" transform="translate(113,102)"/>
<path d="M0 0 C1.670625 0.061875 1.670625 0.061875 3.375 0.125 C3.75718767 1.78114657 4.08895102 3.44957024 4.375 5.125 C3.375 6.125 3.375 6.125 1.52734375 6.22265625 C-0.5234375 6.19010417 -2.57421875 6.15755208 -4.625 6.125 C-5.25 4.25 -5.25 4.25 -5.625 2.125 C-3.625 0.125 -3.625 0.125 0 0 Z " fill="#303B43" transform="translate(530.625,28.875)"/>
<path d="M0 0 C0.66 0 1.32 0 2 0 C2.33 2.64 2.66 5.28 3 8 C3.99 8 4.98 8 6 8 C6.33 5.36 6.66 2.72 7 0 C7.66 0 8.32 0 9 0 C9 3.63 9 7.26 9 11 C2.84765625 11.09765625 2.84765625 11.09765625 1 11 C0 10 0 10 -0.09765625 7.71484375 C-0.08605469 6.79832031 -0.07445312 5.88179687 -0.0625 4.9375 C-0.05347656 4.01839844 -0.04445312 3.09929688 -0.03515625 2.15234375 C-0.02355469 1.44207031 -0.01195312 0.73179688 0 0 Z " fill="#0264CD" transform="translate(207,28)"/>
<path d="M0 0 C0.99 0 1.98 0 3 0 C3 2.64 3 5.28 3 8 C2.34 8 1.68 8 1 8 C0.67 9.65 0.34 11.3 0 13 C-1.32 12.67 -2.64 12.34 -4 12 C-4 10.35 -4 8.7 -4 7 C-2.68 6.67 -1.36 6.34 0 6 C-0.33 5.34 -0.66 4.68 -1 4 C-0.5625 1.875 -0.5625 1.875 0 0 Z " fill="#0456AE" transform="translate(226,24)"/>
<path d="M0 0 C0.66 0 1.32 0 2 0 C2 0.99 2 1.98 2 3 C3.32 3.33 4.64 3.66 6 4 C6.04254356 5.99954746 6.04080783 8.00041636 6 10 C5.67 10.33 5.34 10.66 5 11 C3.35 11 1.7 11 0 11 C0 7.37 0 3.74 0 0 Z " fill="#46565F" transform="translate(129,73)"/>
<path d="M0 0 C2.31 0.33 4.62 0.66 7 1 C6.67 2.65 6.34 4.3 6 6 C4.68 6.33 3.36 6.66 2 7 C2 7.99 2 8.98 2 10 C1.34 10 0.68 10 0 10 C0 6.7 0 3.4 0 0 Z " fill="#4A5A64" transform="translate(71,102)"/>
<path d="M0 0 C0.66 0 1.32 0 2 0 C2 2.64 2 5.28 2 8 C1.34 8 0.68 8 0 8 C0 6.68 0 5.36 0 4 C-0.66 4 -1.32 4 -2 4 C-2 5.32 -2 6.64 -2 8 C-3.65 8 -5.3 8 -7 8 C-7 5.69 -7 3.38 -7 1 C-4.69 1.33 -2.38 1.66 0 2 C0 1.34 0 0.68 0 0 Z " fill="#404F57" transform="translate(549,27)"/>
<path d="M0 0 C1.2375 0.185625 2.475 0.37125 3.75 0.5625 C6.76279577 0.94711223 9.10010827 1.0874594 12 0 C12 1.65 12 3.3 12 5 C8.04 5 4.08 5 0 5 C0 3.35 0 1.7 0 0 Z " fill="#0B0F14" transform="translate(32,161)"/>
<path d="M0 0 C0.33 0.99 0.66 1.98 1 3 C2.98045559 3.66179847 2.98045559 3.66179847 5 4 C6 5 6 5 6.125 7.5 C6 10 6 10 5 11 C3.35 11 1.7 11 0 11 C0 7.37 0 3.74 0 0 Z " fill="#485861" transform="translate(135,129)"/>
<path d="M0 0 C0.33 0.99 0.66 1.98 1 3 C2.98045559 3.66179847 2.98045559 3.66179847 5 4 C6 5 6 5 6.125 7.5 C6 10 6 10 5 11 C3.35 11 1.7 11 0 11 C0 7.37 0 3.74 0 0 Z " fill="#485861" transform="translate(88,101)"/>
<path d="M0 0 C0.33 0 0.66 0 1 0 C1 3.63 1 7.26 1 11 C-0.65 11 -2.3 11 -4 11 C-4.625 8.125 -4.625 8.125 -5 5 C-4.34 4.34 -3.68 3.68 -3 3 C-2.01 3 -1.02 3 0 3 C0 2.01 0 1.02 0 0 Z " fill="#475760" transform="translate(137,157)"/>
<path d="M0 0 C3.69230769 0.69230769 3.69230769 0.69230769 5 2 C5.04063832 3.66617115 5.042721 5.33388095 5 7 C2.625 7.625 2.625 7.625 0 8 C-0.66 7.34 -1.32 6.68 -2 6 C-1.44444444 1.44444444 -1.44444444 1.44444444 0 0 Z " fill="#42515A" transform="translate(211,132)"/>
<path d="M0 0 C4.875 0.875 4.875 0.875 6 2 C6.04063832 3.66617115 6.042721 5.33388095 6 7 C5.195625 7.12375 4.39125 7.2475 3.5625 7.375 C2.2940625 7.684375 2.2940625 7.684375 1 8 C0.67 8.66 0.34 9.32 0 10 C0 6.7 0 3.4 0 0 Z " fill="#46555F" transform="translate(130,104)"/>
<path d="M0 0 C3.69230769 0.69230769 3.69230769 0.69230769 5 2 C5.04063832 3.66617115 5.042721 5.33388095 5 7 C2.625 7.625 2.625 7.625 0 8 C-0.66 7.34 -1.32 6.68 -2 6 C-1.44444444 1.44444444 -1.44444444 1.44444444 0 0 Z " fill="#43515A" transform="translate(156,76)"/>
<path d="M0 0 C2.125 0.375 2.125 0.375 4 1 C4.625 3.375 4.625 3.375 5 6 C4.34 6.66 3.68 7.32 3 8 C0.375 7.625 0.375 7.625 -2 7 C-2.125 4.625 -2.125 4.625 -2 2 C-1.34 1.34 -0.68 0.68 0 0 Z " fill="#5D717B" transform="translate(100,76)"/>
<path d="M0 0 C2.125 0.375 2.125 0.375 4 1 C4.625 3.375 4.625 3.375 5 6 C4.34 6.66 3.68 7.32 3 8 C1.68 8 0.36 8 -1 8 C-1.625 5.125 -1.625 5.125 -2 2 C-1.34 1.34 -0.68 0.68 0 0 Z " fill="#43525B" transform="translate(182,76)"/>
<path d="M0 0 C2.125 0.375 2.125 0.375 4 1 C4.625 3.375 4.625 3.375 5 6 C4.34 6.66 3.68 7.32 3 8 C0.375 7.625 0.375 7.625 -2 7 C-2.125 4.625 -2.125 4.625 -2 2 C-1.34 1.34 -0.68 0.68 0 0 Z " fill="#607580" transform="translate(61,132)"/>
<path d="M0 0 C1.32 0.33 2.64 0.66 4 1 C3.34 1.66 2.68 2.32 2 3 C1.75456859 5.64787789 1.62650614 8.19903823 1.5859375 10.8515625 C1.56657135 11.62559418 1.5472052 12.39962585 1.5272522 13.19711304 C1.4674017 15.67296275 1.42104989 18.14885883 1.375 20.625 C1.33682518 22.30210377 1.29777375 23.97918784 1.2578125 25.65625 C1.16169591 29.77067353 1.07768561 33.88518886 1 38 C0.67 38 0.34 38 0 38 C0 25.46 0 12.92 0 0 Z " fill="#AEB0B3" transform="translate(0,0)"/>
<path d="M0 0 C0.99 0 1.98 0 3 0 C3.66 2.31 4.32 4.62 5 7 C4 8 4 8 1.5 8.125 C-1 8 -1 8 -2 7 C-2.1875 4.5625 -2.1875 4.5625 -2 2 C-1.34 1.34 -0.68 0.68 0 0 Z " fill="#333F47" transform="translate(180,160)"/>
<path d="M0 0 C1.2065625 0.0309375 1.2065625 0.0309375 2.4375 0.0625 C2.4375 2.3725 2.4375 4.6825 2.4375 7.0625 C0.5625 7.6875 0.5625 7.6875 -1.5625 8.0625 C-3.5625 6.0625 -3.5625 6.0625 -3.75 3.5 C-3.4919783 0.14571793 -3.38163728 0.08247896 0 0 Z " fill="#0C141E" transform="translate(112.5625,29.9375)"/>
<path d="M0 0 C1.2065625 0.0309375 1.2065625 0.0309375 2.4375 0.0625 C2.4375 2.3725 2.4375 4.6825 2.4375 7.0625 C0.5625 7.6875 0.5625 7.6875 -1.5625 8.0625 C-3.5625 6.0625 -3.5625 6.0625 -3.75 3.5 C-3.4919783 0.14571793 -3.38163728 0.08247896 0 0 Z " fill="#0C131C" transform="translate(99.5625,29.9375)"/>
<path d="M0 0 C0 1.65 0 3.3 0 5 C-1.65 4.67 -3.3 4.34 -5 4 C-5.33 4.99 -5.66 5.98 -6 7 C-7.32 6.67 -8.64 6.34 -10 6 C-9.34 6 -8.68 6 -8 6 C-8.66 4.02 -9.32 2.04 -10 0 C-6.25297715 -1.03366148 -3.77200794 -1.25733598 0 0 Z " fill="#43525B" transform="translate(645,30)"/>
<path d="M0 0 C0.99 0.33 1.98 0.66 3 1 C1.68 1.33 0.36 1.66 -1 2 C-1 2.66 -1 3.32 -1 4 C0.32 4.33 1.64 4.66 3 5 C2.67 6.65 2.34 8.3 2 10 C0.35 9.67 -1.3 9.34 -3 9 C-3.36923077 3.46153846 -3.36923077 3.46153846 -1.5 1.125 C-1.005 0.75375 -0.51 0.3825 0 0 Z " fill="#4E5F69" transform="translate(55,74)"/>
<path d="M0 0 C0.66 0 1.32 0 2 0 C2 0.66 2 1.32 2 2 C2.99 2.33 3.98 2.66 5 3 C5 4.65 5 6.3 5 8 C4.67 6.68 4.34 5.36 4 4 C3.34 4 2.68 4 2 4 C2 5.32 2 6.64 2 8 C0.33388095 8.042721 -1.33382885 8.04063832 -3 8 C-4 7 -4 7 -4.0625 3.9375 C-4.041875 2.968125 -4.02125 1.99875 -4 1 C-3.01 1.33 -2.02 1.66 -1 2 C-1.33 3.65 -1.66 5.3 -2 7 C-1.34 7 -0.68 7 0 7 C0 4.69 0 2.38 0 0 Z " fill="#485862" transform="translate(603,27)"/>
<path d="M0 0 C1.67542976 0.28604898 3.34385343 0.61781233 5 1 C5 2.98 5 4.96 5 7 C3.125 7.625 3.125 7.625 1 8 C-1 6 -1 6 -1.1875 3.4375 C-1 1 -1 1 0 0 Z " fill="#0C131D" transform="translate(50,30)"/>
<path d="M0 0 C2.125 0.375 2.125 0.375 4 1 C4 2.98 4 4.96 4 7 C2.34385343 7.38218767 0.67542976 7.71395102 -1 8 C-2 7 -2 7 -2.1875 4.5625 C-2 2 -2 2 0 0 Z " fill="#647984" transform="translate(126,160)"/>
<path d="M0 0 C0.66 0 1.32 0 2 0 C2 0.99 2 1.98 2 3 C2.9590625 3.2165625 2.9590625 3.2165625 3.9375 3.4375 C6 4 6 4 7 5 C7.04080783 6.99958364 7.04254356 9.00045254 7 11 C6.34 11 5.68 11 5 11 C5 9.02 5 7.04 5 5 C4.01 5 3.02 5 2 5 C2 6.98 2 8.96 2 11 C1.34 11 0.68 11 0 11 C0 7.37 0 3.74 0 0 Z " fill="#546671" transform="translate(148,157)"/>
<path d="M0 0 C0.33 1.32 0.66 2.64 1 4 C2.65 4 4.3 4 6 4 C6 2.68 6 1.36 6 0 C6.66 0 7.32 0 8 0 C8 3.3 8 6.6 8 10 C7.34 10 6.68 10 6 10 C6 8.68 6 7.36 6 6 C4.35 6 2.7 6 1 6 C0.67 7.32 0.34 8.64 0 10 C0 6.7 0 3.4 0 0 Z " fill="#5D717C" transform="translate(117,130)"/>
<path d="M0 0 C1.32 0.66 2.64 1.32 4 2 C4 3.65 4 5.3 4 7 C2.34385343 7.38218767 0.67542976 7.71395102 -1 8 C-2 7 -2 7 -2.1875 4.5625 C-2 2 -2 2 0 0 Z " fill="#667B86" transform="translate(140,104)"/>
<path d="M0 0 C0.66 0 1.32 0 2 0 C2 1.32 2 2.64 2 4 C3.65 4 5.3 4 7 4 C7.33 2.68 7.66 1.36 8 0 C8 3.3 8 6.6 8 10 C7.67 8.68 7.34 7.36 7 6 C5.35 6 3.7 6 2 6 C2 7.32 2 8.64 2 10 C1.34 10 0.68 10 0 10 C0 6.7 0 3.4 0 0 Z " fill="#5D717C" transform="translate(218,74)"/>
<path d="M0 0 C0.66 0.33 1.32 0.66 2 1 C2 3.97 2 6.94 2 10 C1.34 10 0.68 10 0 10 C0 8.02 0 6.04 0 4 C-0.99 4 -1.98 4 -3 4 C-3 5.98 -3 7.96 -3 10 C-3.66 10 -4.32 10 -5 10 C-5 7.69 -5 5.38 -5 3 C-3.35 2.67 -1.7 2.34 0 2 C0 1.34 0 0.68 0 0 Z " fill="#4E5F69" transform="translate(125,74)"/>
<path d="M0 0 C1.65 0 3.3 0 5 0 C5.33 0.66 5.66 1.32 6 2 C4.35 2 2.7 2 1 2 C2.39195915 4.7839183 4.15575779 4.97898997 7 6 C6.125 9.875 6.125 9.875 5 11 C3.33382885 11.04063832 1.66611905 11.042721 0 11 C0 10.01 0 9.02 0 8 C1.98 8.495 1.98 8.495 4 9 C4 8.34 4 7.68 4 7 C1.525 6.01 1.525 6.01 -1 5 C-0.67 3.35 -0.34 1.7 0 0 Z " fill="#035BBA" transform="translate(26,28)"/>
<path d="M0 0 C0 4.29 0 8.58 0 13 C0.99 13.33 1.98 13.66 3 14 C0.03 14 -2.94 14 -6 14 C-4.68 13.67 -3.36 13.34 -2 13 C-2 9.37 -2 5.74 -2 2 C-2.99 1.67 -3.98 1.34 -5 1 C-3 0 -3 0 0 0 Z " fill="#045AB8" transform="translate(149,25)"/>
<path d="M0 0 C3.875 0.875 3.875 0.875 5 2 C5.04080783 3.99958364 5.04254356 6.00045254 5 8 C3.02 8 1.04 8 -1 8 C-0.67 5.36 -0.34 2.72 0 0 Z " fill="#4D5E67" transform="translate(78,160)"/>
<path d="M0 0 C0.66 0 1.32 0 2 0 C2 1.65 2 3.3 2 5 C2.66 5 3.32 5 4 5 C4 4.34 4 3.68 4 3 C4.66 3.33 5.32 3.66 6 4 C5.7215625 4.8971875 5.7215625 4.8971875 5.4375 5.8125 C4.77906313 8.16408762 4.77906313 8.16408762 6 11 C5.34 11 4.68 11 4 11 C3.67 10.34 3.34 9.68 3 9 C2.67 9.66 2.34 10.32 2 11 C1.34 11 0.68 11 0 11 C0 7.37 0 3.74 0 0 Z " fill="#4A5A64" transform="translate(79,73)"/>
<path d="M0 0 C2.0625 0.4375 2.0625 0.4375 4 1 C3.34 1 2.68 1 2 1 C2 1.99 2 2.98 2 4 C2.99 3.67 3.98 3.34 5 3 C5.33 2.34 5.66 1.68 6 1 C6.66 1 7.32 1 8 1 C8.33 2.65 8.66 4.3 9 6 C6.03 6 3.06 6 0 6 C-0.38218767 4.34385343 -0.71395102 2.67542976 -1 1 C-0.67 0.67 -0.34 0.34 0 0 Z " fill="#035EBE" transform="translate(245,33)"/>
<path d="M0 0 C1.65 0 3.3 0 5 0 C5.33 0.66 5.66 1.32 6 2 C4.02 2 2.04 2 0 2 C1.39195915 4.7839183 3.15575779 4.97898997 6 6 C5.67 7.65 5.34 9.3 5 11 C3.02 11 1.04 11 -1 11 C-1.33 10.01 -1.66 9.02 -2 8 C0.97 8.495 0.97 8.495 4 9 C4 8.34 4 7.68 4 7 C1.525 6.01 1.525 6.01 -1 5 C-0.67 3.35 -0.34 1.7 0 0 Z " fill="#0458B2" transform="translate(121,28)"/>
<path d="M0 0 C2.375 -0.125 2.375 -0.125 5 0 C7.39763185 2.39763185 7.34280586 3.33273498 7.625 6.625 C7.69976562 7.44226562 7.77453125 8.25953125 7.8515625 9.1015625 C7.92503906 10.04128906 7.92503906 10.04128906 8 11 C7.01 11 6.02 11 5 11 C4.45627049 7.94152152 4 5.11227195 4 2 C2.35 2.33 0.7 2.66 -1 3 C-0.67 2.01 -0.34 1.02 0 0 Z " fill="#0361C5" transform="translate(275,28)"/>
<path d="M0 0 C3.875 0.875 3.875 0.875 5 2 C5.04080783 3.99958364 5.04254356 6.00045254 5 8 C3.35 8 1.7 8 0 8 C-0.98120464 4.94736336 -0.98120464 3.05263664 0 0 Z " fill="#4F606A" transform="translate(59,160)"/>
<path d="M0 0 C2.125 0.375 2.125 0.375 4 1 C4.33 2.32 4.66 3.64 5 5 C3.68 5.33 2.36 5.66 1 6 C1.99 6.66 2.98 7.32 4 8 C2.35 7.67 0.7 7.34 -1 7 C-1.625 4.625 -1.625 4.625 -2 2 C-1.34 1.34 -0.68 0.68 0 0 Z " fill="#51636C" transform="translate(142,160)"/>
<path d="M0 0 C3.875 0.875 3.875 0.875 5 2 C5.04080783 3.99958364 5.04254356 6.00045254 5 8 C3.35 8 1.7 8 0 8 C-0.98120464 4.94736336 -0.98120464 3.05263664 0 0 Z " fill="#4F606A" transform="translate(195,132)"/>
<path d="M0 0 C0.66 0 1.32 0 2 0 C2 4.95 2 9.9 2 15 C1.34 15 0.68 15 0 15 C-1.47193312 12.05613377 -0.84936173 9.62609964 -0.5625 6.375 C-0.46066406 5.18648437 -0.35882813 3.99796875 -0.25390625 2.7734375 C-0.17011719 1.85820312 -0.08632813 0.94296875 0 0 Z " fill="#0360C3" transform="translate(293,24)"/>
<path d="M0 0 C0.66 0 1.32 0 2 0 C2 2.64 2 5.28 2 8 C0.35 8 -1.3 8 -3 8 C-3 5.69 -3 3.38 -3 1 C-2.01 1.33 -1.02 1.66 0 2 C0 1.34 0 0.68 0 0 Z " fill="#3A4750" transform="translate(567,27)"/>
<path d="M0 0 C2.125 0.375 2.125 0.375 4 1 C4 2.32 4 3.64 4 5 C3.01 5.33 2.02 5.66 1 6 C1.66 6.66 2.32 7.32 3 8 C1.68 8 0.36 8 -1 8 C-1.625 5.125 -1.625 5.125 -2 2 C-1.34 1.34 -0.68 0.68 0 0 Z " fill="#53656E" transform="translate(166,132)"/>
<path d="M0 0 C4.70588235 0.70588235 4.70588235 0.70588235 6 2 C6.04080783 3.99958364 6.04254356 6.00045254 6 8 C5.34 8 4.68 8 4 8 C4 6.02 4 4.04 4 2 C3.01 2 2.02 2 1 2 C1 3.98 1 5.96 1 8 C0.34 8 -0.32 8 -1 8 C-1.04241723 5.66705225 -1.04092937 3.33297433 -1 1 C-0.67 0.67 -0.34 0.34 0 0 Z " fill="#546670" transform="translate(107,76)"/>
<path d="M0 0 C1.98 0.495 1.98 0.495 4 1 C4 3.31 4 5.62 4 8 C2.35 8 0.7 8 -1 8 C-0.835 7.236875 -0.67 6.47375 -0.5 5.6875 C0.09145396 2.96403764 0.09145396 2.96403764 0 0 Z " fill="#51626C" transform="translate(173,132)"/>
<path d="M0 0 C0.99 0.33 1.98 0.66 3 1 C3 2.65 3 4.3 3 6 C3.66 6.33 4.32 6.66 5 7 C3.02 7 1.04 7 -1 7 C-1.625 4.625 -1.625 4.625 -2 2 C-1.34 1.34 -0.68 0.68 0 0 Z " fill="#4D5E67" transform="translate(96,160)"/>
<path d="M0 0 C1.65 0 3.3 0 5 0 C4.01 0.33 3.02 0.66 2 1 C2 1.99 2 2.98 2 4 C3.32 4.33 4.64 4.66 6 5 C5.67 6.32 5.34 7.64 5 9 C3.35 9.33 1.7 9.66 0 10 C0 9.34 0 8.68 0 8 C1.32 8 2.64 8 4 8 C3.67 7.34 3.34 6.68 3 6 C2.01 5.67 1.02 5.34 0 5 C0 3.35 0 1.7 0 0 Z " fill="#576974" transform="translate(60,102)"/>
<path d="M0 0 C2.125 0.9375 2.125 0.9375 4 2 C4 2.99 4 3.98 4 5 C2.68 5.33 1.36 5.66 0 6 C0.99 6.66 1.98 7.32 3 8 C1.35 7.67 -0.3 7.34 -2 7 C-2 5.02 -2 3.04 -2 1 C-1.34 0.67 -0.68 0.34 0 0 Z " fill="#556771" transform="translate(124,104)"/>
<path d="M0 0 C0.99 0 1.98 0 3 0 C3 0.66 3 1.32 3 2 C4.98 1.67 6.96 1.34 9 1 C9 1.66 9 2.32 9 3 C8.21625 3.2475 7.4325 3.495 6.625 3.75 C3.67682892 5.15389099 3.0975223 6.00675737 2 9 C2 7.68 2 6.36 2 5 C1.34 5 0.68 5 0 5 C0 3.35 0 1.7 0 0 Z " fill="#0A2038" transform="translate(295,29)"/>
<path d="M0 0 C0.66 0 1.32 0 2 0 C2 0.66 2 1.32 2 2 C2.99 2.33 3.98 2.66 5 3 C4.67 4.65 4.34 6.3 4 8 C2.68 8 1.36 8 0 8 C0 5.36 0 2.72 0 0 Z " fill="#425059" transform="translate(552,27)"/>
<path d="M0 0 C1.32 0.66 2.64 1.32 4 2 C4 2.99 4 3.98 4 5 C2.68 5.33 1.36 5.66 0 6 C0.99 6.66 1.98 7.32 3 8 C1.35 7.67 -0.3 7.34 -2 7 C-2.125 4.625 -2.125 4.625 -2 2 C-1.34 1.34 -0.68 0.68 0 0 Z " fill="#566973" transform="translate(81,132)"/>
<path d="M0 0 C0.33 0 0.66 0 1 0 C1 4.29 1 8.58 1 13 C-0.32 13 -1.64 13 -3 13 C-3 12.34 -3 11.68 -3 11 C-2.34 11 -1.68 11 -1 11 C-1 10.34 -1 9.68 -1 9 C-3.64 9 -6.28 9 -9 9 C-9 8.67 -9 8.34 -9 8 C-6.03 8 -3.06 8 0 8 C0 5.36 0 2.72 0 0 Z " fill="#828A94" transform="translate(43,99)"/>
<path d="M0 0 C2.5625 0.25 2.5625 0.25 5 1 C5.33 1.66 5.66 2.32 6 3 C4.68 3 3.36 3 2 3 C2 4.98 2 6.96 2 9 C0.68 9 -0.64 9 -2 9 C-2.125 5.625 -2.125 5.625 -2 2 C-1.34 1.34 -0.68 0.68 0 0 Z " fill="#035BB9" transform="translate(221,28)"/>
<path d="M0 0 C0.99 0.33 1.98 0.66 3 1 C3 2.98 3 4.96 3 7 C0.69 7 -1.62 7 -4 7 C-4 4 -4 4 -3 1 C-2.34 1 -1.68 1 -1 1 C-1 1.99 -1 2.98 -1 4 C-0.67 2.68 -0.34 1.36 0 0 Z " fill="#4C5C66" transform="translate(629,28)"/>
<path d="M0 0 C0.66 0.33 1.32 0.66 2 1 C1.67 1.66 1.34 2.32 1 3 C0.93003986 4.70702735 0.91559846 6.41668003 0.9375 8.125 C0.95103516 9.49011719 0.95103516 9.49011719 0.96484375 10.8828125 C0.97644531 11.58148438 0.98804687 12.28015625 1 13 C0.01 13.33 -0.98 13.66 -2 14 C-1.85970581 11.8537974 -1.71261836 9.70803782 -1.5625 7.5625 C-1.48128906 6.36753906 -1.40007812 5.17257813 -1.31640625 3.94140625 C-1 1 -1 1 0 0 Z " fill="#4A5A64" transform="translate(74,157)"/>
<path d="M0 0 C1.65 0 3.3 0 5 0 C5 1.65 5 3.3 5 5 C3.0625 5.5625 3.0625 5.5625 1 6 C0 5 0 5 -0.0625 2.4375 C-0.041875 1.633125 -0.02125 0.82875 0 0 Z " fill="#0B1A2B" transform="translate(287,31)"/>
<path d="M0 0 C0.99 0.99 1.98 1.98 3 3 C3.33 2.01 3.66 1.02 4 0 C4.66 0.33 5.32 0.66 6 1 C5.60348083 2.31872662 5.18201309 3.62997101 4.75 4.9375 C4.40195313 6.03384766 4.40195313 6.03384766 4.046875 7.15234375 C3 9 3 9 0.890625 9.75390625 C-0.04523438 9.87572266 -0.04523438 9.87572266 -1 10 C-1 9.34 -1 8.68 -1 8 C-0.01 8 0.98 8 2 8 C1.67 7.236875 1.34 6.47375 1 5.6875 C0 3 0 3 0 0 Z " fill="#5C707A" transform="translate(84,161)"/>
<path d="M0 0 C0.66 0 1.32 0 2 0 C2.02689216 1.47906892 2.04634621 2.95827483 2.0625 4.4375 C2.07410156 5.26121094 2.08570313 6.08492187 2.09765625 6.93359375 C2 9 2 9 1 10 C-0.66617115 10.04063832 -2.33388095 10.042721 -4 10 C-4 9.34 -4 8.68 -4 8 C-2.68 8 -1.36 8 0 8 C0 5.36 0 2.72 0 0 Z " fill="#546771" transform="translate(55,130)"/>
<path d="M0 0 C0.99 0.99 1.98 1.98 3 3 C3.33 2.01 3.66 1.02 4 0 C4.66 0.33 5.32 0.66 6 1 C5.60348083 2.31872662 5.18201309 3.62997101 4.75 4.9375 C4.40195313 6.03384766 4.40195313 6.03384766 4.046875 7.15234375 C3 9 3 9 0.890625 9.75390625 C-0.04523438 9.87572266 -0.04523438 9.87572266 -1 10 C-1 9.34 -1 8.68 -1 8 C-0.01 8 0.98 8 2 8 C1.67 7.236875 1.34 6.47375 1 5.6875 C0 3 0 3 0 0 Z " fill="#5C707A" transform="translate(157,133)"/>
<path d="M0 0 C0.66 0 1.32 0 2 0 C2 0.66 2 1.32 2 2 C2.99 2 3.98 2 5 2 C5 2.66 5 3.32 5 4 C4.01 4 3.02 4 2 4 C2 5.65 2 7.3 2 9 C2.66 9.33 3.32 9.66 4 10 C2.68 9.67 1.36 9.34 0 9 C0 6.03 0 3.06 0 0 Z " fill="#52646E" transform="translate(114,74)"/>
<path d="M0 0 C3 2 3 2 4 5 C4.66 5.33 5.32 5.66 6 6 C5.67 6.66 5.34 7.32 5 8 C5.33 8.66 5.66 9.32 6 10 C4.125 9.6875 4.125 9.6875 2 9 C-0.29013653 5.5647952 -0.17842973 4.014669 0 0 Z " fill="#79818A" transform="translate(30,75)"/>
<path d="M0 0 C0.66 0 1.32 0 2 0 C2.12375 0.969375 2.2475 1.93875 2.375 2.9375 C2.684375 4.4534375 2.684375 4.4534375 3 6 C3.66 6.33 4.32 6.66 5 7 C5 5.02 5 3.04 5 1 C5.33 1 5.66 1 6 1 C6 3.31 6 5.62 6 8 C4.33388095 8.042721 2.66617115 8.04063832 1 8 C0 7 0 7 -0.0625 3.4375 C-0.041875 2.303125 -0.02125 1.16875 0 0 Z " fill="#5C707B" transform="translate(228,76)"/>
<path d="M0 0 C1.134375 0.020625 2.26875 0.04125 3.4375 0.0625 C3.4375 0.7225 3.4375 1.3825 3.4375 2.0625 C2.65375 2.330625 1.87 2.59875 1.0625 2.875 C-1.84364923 3.91064432 -1.84364923 3.91064432 -3.5625 7.0625 C-3.94383299 5.0710944 -4.27575582 3.06970923 -4.5625 1.0625 C-3.5625 0.0625 -3.5625 0.0625 0 0 Z " fill="#0B1828" transform="translate(75.5625,29.9375)"/>
<path d="M0 0 C0.66 0 1.32 0 2 0 C2 0.66 2 1.32 2 2 C2.66 2 3.32 2 4 2 C4 2.66 4 3.32 4 4 C3.34 4 2.68 4 2 4 C2 5.65 2 7.3 2 9 C2.66 9.33 3.32 9.66 4 10 C2.68 9.67 1.36 9.34 0 9 C0 6.03 0 3.06 0 0 Z " fill="#576A74" transform="translate(145,74)"/>
<path d="M0 0 C1.98 0.495 1.98 0.495 4 1 C3.67 2.65 3.34 4.3 3 6 C1.68 5.67 0.36 5.34 -1 5 C-0.67 3.35 -0.34 1.7 0 0 Z " fill="#3F4D56" transform="translate(531,29)"/>
<path d="M0 0 C0.99 0.33 1.98 0.66 3 1 C3 2.98 3 4.96 3 7 C1.68 6.67 0.36 6.34 -1 6 C-1.042721 4.33388095 -1.04063832 2.66617115 -1 1 C-0.67 0.67 -0.34 0.34 0 0 Z " fill="#0C1521" transform="translate(223,30)"/>
<path d="M0 0 C0.66 0 1.32 0 2 0 C1.1875 3.4375 1.1875 3.4375 0 7 C-0.99 7.33 -1.98 7.66 -3 8 C-3.66 5.69 -4.32 3.38 -5 1 C-4.34 1 -3.68 1 -3 1 C-2.34 1.66 -1.68 2.32 -1 3 C-0.67 2.01 -0.34 1.02 0 0 Z " fill="#596C77" transform="translate(164,160)"/>
<path d="M0 0 C1.98 0.99 1.98 0.99 4 2 C4 3.65 4 5.3 4 7 C2.68 7 1.36 7 0 7 C0 4.69 0 2.38 0 0 Z " fill="#354149" transform="translate(542,28)"/>
<path d="M0 0 C0.99 0 1.98 0 3 0 C3.66 2.31 4.32 4.62 5 7 C3.33333333 7 1.66666667 7 0 7 C0 4.69 0 2.38 0 0 Z " fill="#0B1929" transform="translate(306,30)"/>
<path d="M0 0 C0.99 0.33 1.98 0.66 3 1 C2.67 2.65 2.34 4.3 2 6 C0.68 5.67 -0.64 5.34 -2 5 C-1.125 1.125 -1.125 1.125 0 0 Z " fill="#404F58" transform="translate(572,29)"/>
<path d="M0 0 C0.33 0 0.66 0 1 0 C1 2.64 1 5.28 1 8 C3.64 8 6.28 8 9 8 C9 8.33 9 8.66 9 9 C6.36 9 3.72 9 1 9 C1 9.66 1 10.32 1 11 C0.34 11 -0.32 11 -1 11 C-0.67 7.37 -0.34 3.74 0 0 Z " fill="#5D656D" transform="translate(33,100)"/>
<path d="M0 0 C0.99 0 1.98 0 3 0 C3.33 1.98 3.66 3.96 4 6 C2.35 6 0.7 6 -1 6 C-1.042721 4.33388095 -1.04063832 2.66617115 -1 1 C-0.67 0.67 -0.34 0.34 0 0 Z " fill="#45545D" transform="translate(577,29)"/>
<path d="M0 0 C1.98 0.495 1.98 0.495 4 1 C4 2.65 4 4.3 4 6 C2.35 5.67 0.7 5.34 -1 5 C-0.67 3.35 -0.34 1.7 0 0 Z " fill="#44535C" transform="translate(620,29)"/>
<path d="M0 0 C3.3 0 6.6 0 10 0 C8.515 1.485 8.515 1.485 7 3 C3.875 2.8125 3.875 2.8125 1 2 C0.67 1.34 0.34 0.68 0 0 Z " fill="#0A0E13" transform="translate(33,158)"/>
<path d="M0 0 C1.32 0.33 2.64 0.66 4 1 C4 1.66 4 2.32 4 3 C3.34 3 2.68 3 2 3 C2 4.65 2 6.3 2 8 C2.66 8.33 3.32 8.66 4 9 C2.68 8.67 1.36 8.34 0 8 C0 5.36 0 2.72 0 0 Z " fill="#5B6F79" transform="translate(111,131)"/>
<path d="M0 0 C1.125 1.75 1.125 1.75 2 4 C1.125 6.25 1.125 6.25 0 8 C-0.99 8 -1.98 8 -3 8 C-3 6.68 -3 5.36 -3 4 C-2.34 3.67 -1.68 3.34 -1 3 C-0.67 2.01 -0.34 1.02 0 0 Z " fill="#7F8791" transform="translate(43,77)"/>
<path d="M0 0 C0.33 0 0.66 0 1 0 C1 4.95 1 9.9 1 15 C-0.32 15.33 -1.64 15.66 -3 16 C-3 15.34 -3 14.68 -3 14 C-2.34 13.67 -1.68 13.34 -1 13 C-0.53045739 9.95418731 -0.53045739 9.95418731 -0.375 6.4375 C-0.30023438 5.23996094 -0.22546875 4.04242188 -0.1484375 2.80859375 C-0.09945312 1.88175781 -0.05046875 0.95492188 0 0 Z " fill="#035EBF" transform="translate(90,28)"/>
<path d="M0 0 C0.99 0 1.98 0 3 0 C4.125 3.75 4.125 3.75 3 6 C1.68 5.67 0.36 5.34 -1 5 C-0.67 3.35 -0.34 1.7 0 0 Z " fill="#495963" transform="translate(610,29)"/>
<path d="M0 0 C2.31 0 4.62 0 7 0 C7 1.65 7 3.3 7 5 C4.69 4.34 2.38 3.68 0 3 C0 2.01 0 1.02 0 0 Z " fill="#0C1623" transform="translate(197,27)"/>
<path d="M0 0 C0.99 0 1.98 0 3 0 C2.34 2.31 1.68 4.62 1 7 C-0.32 7.33 -1.64 7.66 -3 8 C-2.01 5.36 -1.02 2.72 0 0 Z " fill="#0458B1" transform="translate(316,28)"/>
<path d="M0 0 C0.99 0 1.98 0 3 0 C2.67 1.65 2.34 3.3 2 5 C0.35 5 -1.3 5 -3 5 C-2.34 4.67 -1.68 4.34 -1 4 C-0.34786708 1.97536745 -0.34786708 1.97536745 0 0 Z " fill="#073B74" transform="translate(301,34)"/>
<path d="M0 0 C2.0625 0.4375 2.0625 0.4375 4 1 C4 2.65 4 4.3 4 6 C3.67 4.68 3.34 3.36 3 2 C2.34 2 1.68 2 1 2 C1 3.32 1 4.64 1 6 C0.34 6 -0.32 6 -1 6 C-1.042721 4.33388095 -1.04063832 2.66617115 -1 1 C-0.67 0.67 -0.34 0.34 0 0 Z " fill="#495963" transform="translate(592,29)"/>
<path d="M0 0 C1.65 0 3.3 0 5 0 C5.33 0.66 5.66 1.32 6 2 C4.35 2 2.7 2 1 2 C1.33 3.32 1.66 4.64 2 6 C1.01 5.67 0.02 5.34 -1 5 C-0.67 3.35 -0.34 1.7 0 0 Z " fill="#0452A5" transform="translate(26,28)"/>
<path d="M0 0 C2.31 0 4.62 0 7 0 C6.67 0.99 6.34 1.98 6 3 C4.02 3.33 2.04 3.66 0 4 C0 2.68 0 1.36 0 0 Z " fill="#0B1929" transform="translate(243,30)"/>
<path d="M0 0 C0.99 0.33 1.98 0.66 3 1 C3 2.65 3 4.3 3 6 C1.68 6 0.36 6 -1 6 C-1.042721 4.33388095 -1.04063832 2.66617115 -1 1 C-0.67 0.67 -0.34 0.34 0 0 Z " fill="#4D5E68" transform="translate(642,29)"/>
<path d="M0 0 C0.33 0 0.66 0 1 0 C1 1.98 1 3.96 1 6 C1.66 6 2.32 6 3 6 C2.67 7.65 2.34 9.3 2 11 C1.34 11 0.68 11 0 11 C0 7.37 0 3.74 0 0 Z " fill="#5F737E" transform="translate(79,73)"/>
<path d="M0 0 C0.99 0 1.98 0 3 0 C3.5625 1.9375 3.5625 1.9375 4 4 C3 5 3 5 0.4375 5.0625 C-0.7690625 5.0315625 -0.7690625 5.0315625 -2 5 C-1.34 4.67 -0.68 4.34 0 4 C0 2.68 0 1.36 0 0 Z " fill="#073A71" transform="translate(276,34)"/>
<path d="M0 0 C0.99 0.33 1.98 0.66 3 1 C3 2.65 3 4.3 3 6 C1.68 6 0.36 6 -1 6 C-0.67 4.02 -0.34 2.04 0 0 Z " fill="#4C5D66" transform="translate(647,29)"/>
<path d="M0 0 C1.98 0 3.96 0 6 0 C5.67 1.32 5.34 2.64 5 4 C2.525 3.01 2.525 3.01 0 2 C0 1.34 0 0.68 0 0 Z " fill="#0B1827" transform="translate(121,30)"/>
<path d="M0 0 C0.99 0 1.98 0 3 0 C2.67 1.65 2.34 3.3 2 5 C1.01 4.67 0.02 4.34 -1 4 C-0.67 2.68 -0.34 1.36 0 0 Z " fill="#141920" transform="translate(126,162)"/>
<path d="M0 0 C0.99 0 1.98 0 3 0 C2.67 1.65 2.34 3.3 2 5 C1.01 4.67 0.02 4.34 -1 4 C-0.67 2.68 -0.34 1.36 0 0 Z " fill="#141920" transform="translate(61,134)"/>
<path d="M0 0 C1.32 0.33 2.64 0.66 4 1 C3.67 2.32 3.34 3.64 3 5 C2.01 4.67 1.02 4.34 0 4 C0 2.68 0 1.36 0 0 Z " fill="#141920" transform="translate(139,106)"/>
<path d="M0 0 C0.99 0 1.98 0 3 0 C2.67 1.65 2.34 3.3 2 5 C1.01 4.67 0.02 4.34 -1 4 C-0.67 2.68 -0.34 1.36 0 0 Z " fill="#151B21" transform="translate(100,78)"/>
<path d="M0 0 C5.53846154 -0.36923077 5.53846154 -0.36923077 7.875 1.5 C8.24625 1.995 8.6175 2.49 9 3 C8.01 4.485 8.01 4.485 7 6 C7 5.34 7 4.68 7 4 C6.34 4 5.68 4 5 4 C5 3.01 5 2.02 5 1 C3.35 1 1.7 1 0 1 C0 0.67 0 0.34 0 0 Z " fill="#707881" transform="translate(35,70)"/>
<path d="M0 0 C0.33 0 0.66 0 1 0 C1.0825 1.11375 1.165 2.2275 1.25 3.375 C1.57873787 7.05753944 1.57873787 7.05753944 4.0625 8.4375 C4.701875 8.623125 5.34125 8.80875 6 9 C4.35 9.33 2.7 9.66 1 10 C-0.80411967 7.24075815 -1.0127245 6.11027897 -0.625 2.75 C-0.41875 1.8425 -0.2125 0.935 0 0 Z " fill="#06488F" transform="translate(131,29)"/>
<path d="M0 0 C1.32 0 2.64 0 4 0 C3.67 1.32 3.34 2.64 3 4 C1.68 3.67 0.36 3.34 -1 3 C-0.67 2.01 -0.34 1.02 0 0 Z " fill="#0B1826" transform="translate(75,34)"/>
<path d="M0 0 C1.98 0.495 1.98 0.495 4 1 C3.67 1.99 3.34 2.98 3 4 C1.68 4 0.36 4 -1 4 C-0.67 2.68 -0.34 1.36 0 0 Z " fill="#0B1D32" transform="translate(198,33)"/>
<path d="M0 0 C0.99 0.33 1.98 0.66 3 1 C3 1.66 3 2.32 3 3 C4.32 3.33 5.64 3.66 7 4 C5.02 4.33 3.04 4.66 1 5 C0.67 3.35 0.34 1.7 0 0 Z " fill="#0458B3" transform="translate(194,27)"/>
<path d="M0 0 C1.98 0 3.96 0 6 0 C5.67 1.32 5.34 2.64 5 4 C5 3.34 5 2.68 5 2 C3.02 2.33 1.04 2.66 -1 3 C-0.67 2.01 -0.34 1.02 0 0 Z " fill="#035EC0" transform="translate(246,28)"/>
</svg>
